<?xml version="1.0" encoding="UTF-8" standalone="no"?>
<!DOCTYPE svg PUBLIC "-//W3C//DTD SVG 1.1//EN" "http://www.w3.org/Graphics/SVG/1.1/DTD/svg11.dtd">
<svg width="100%" height="100%" viewBox="0 0 24 24" version="1.1" xmlns="http://www.w3.org/2000/svg" xmlns:xlink="http://www.w3.org/1999/xlink" xml:space="preserve" xmlns:serif="http://www.serif.com/" style="fill-rule:evenodd;clip-rule:evenodd;stroke-linejoin:round;stroke-miterlimit:2;">
    <path d="M17,3L17,1C17,0.448 17.447,0 18,0C18.553,0 19,0.448 19,1L19,3C19,3.552 18.553,4 18,4C17.447,4 17,3.552 17,3ZM5,4C5.553,4 6,3.552 6,3L6,1C6,0.448 5.553,0 5,0C4.447,0 4,0.448 4,1L4,3C4,3.552 4.447,4 5,4ZM18,17L18,14L17,14L17,18L20,18L20,17L18,17ZM13,17.5C13,19.981 15.019,22 17.5,22C19.981,22 22,19.981 22,17.5C22,15.019 19.981,13 17.5,13C15.019,13 13,15.019 13,17.5ZM24,17.5C24,21.09 21.09,24 17.5,24C13.91,24 11,21.09 11,17.5C11,13.91 13.91,11 17.5,11C21.09,11 24,13.91 24,17.5ZM9.763,21L2,21L2,8L21,8L21,9.763C21.727,10.093 22.399,10.52 23,11.031L23,2L20,2L20,3C20,4.316 18.722,5.339 17.342,4.894C16.511,4.626 16,3.783 16,2.91L16,2L7,2L7,3C7,4.316 5.722,5.339 4.342,4.894C3.511,4.626 3,3.783 3,2.91L3,2L-0,2L-0,23L11.031,23C10.52,22.399 10.093,21.727 9.763,21Z" style="fill:white;fill-rule:nonzero;"/>
</svg>
