<?xml version="1.0" encoding="UTF-8" standalone="no"?>
<!DOCTYPE svg PUBLIC "-//W3C//DTD SVG 1.1//EN" "http://www.w3.org/Graphics/SVG/1.1/DTD/svg11.dtd">
<svg width="100%" height="100%" viewBox="0 0 24 24" version="1.1" xmlns="http://www.w3.org/2000/svg" xmlns:xlink="http://www.w3.org/1999/xlink" xml:space="preserve" xmlns:serif="http://www.serif.com/" style="fill-rule:evenodd;clip-rule:evenodd;stroke-linejoin:round;stroke-miterlimit:2;">
    <path d="M9,19L5,19L5,17L9,17L9,19ZM11.946,14.964L15.053,18.069L10.941,19L11.946,14.964ZM18,5.911L20,3.887L20,3L15.391,3L18,5.808L18,5.911ZM18,18.045L18,22L2,22L2,5.808L4.666,3L0,3L0,24L20,24L20,16.02L18,18.045ZM3.703,7L16.354,7L13.042,3.431L13.042,3.021C13.043,1.353 11.69,0 10.021,0C8.354,0 7,1.332 7,3L7.001,3.431L3.703,7ZM10,2C10.553,2 11,2.448 11,3C11,3.552 10.553,4 10,4C9.447,4 9,3.552 9,3C9,2.448 9.447,2 10,2ZM24,9.125L16.102,17.121L12.9,13.919L20.798,5.924L24,9.125Z" style="fill:white;fill-rule:nonzero;"/>
</svg>
